<svg xmlns="http://www.w3.org/2000/svg" xmlns:xlink="http://www.w3.org/1999/xlink" width="24" height="22"><defs><path id="a" d="M22.606 21.724H10.058a1.318 1.318 0 01-1.295-1.294v-.2c-.199-.099-.398-.397-.597-.597L3.586 7.588H1.294A1.318 1.318 0 010 6.294C0 5.597.598 5 1.295 5h3.087c.199 0 .298 0 .498.1.398.1.597.398.697.796l5.079 12.842c.1.1.1.298.1.398h11.95c.696 0 1.294.597 1.294 1.294-.1.697-.697 1.294-1.394 1.294zm-11.552.697c1.195 0 2.19.995 2.19 2.29 0 1.194-.995 2.289-2.19 2.289-1.195 0-2.19-.995-2.19-2.29-.1-1.294.895-2.29 2.19-2.29zm8.763 0c1.195 0 2.191.995 2.191 2.29 0 1.194-.996 2.289-2.19 2.289-1.196 0-2.191-.995-2.191-2.29 0-1.294.995-2.29 2.19-2.29z"/></defs><use fill="#C4C4C4" transform="translate(0 -5)" xlink:href="#a"/></svg>